HIERARCHY
ROOT Hips
{
	OFFSET 0.000000 100.481300 0.000000
	CHANNELS 6 Xposition Yposition Zposition Xrotation Yrotation Zrotation
	JOINT Spine
	{
		OFFSET -0.279200 12.230698 -2.892100
		CHANNELS 3 Xrotation Yrotation Zrotation
		JOINT Spine1
		{
			OFFSET -0.325700 14.269203 -3.374200
			CHANNELS 3 Xrotation Yrotation Zrotation
			JOINT Spine2
			{
				OFFSET -0.372300 16.307602 -0.352600
				CHANNELS 3 Xrotation Yrotation Zrotation
				JOINT Neck
				{
					OFFSET -0.418800 17.814194 8.416900
					CHANNELS 3 Xrotation Yrotation Zrotation
					JOINT Head
					{
						OFFSET 0.000000 7.031097 3.806800
						CHANNELS 3 Xrotation Yrotation Zrotation
						JOINT HeadTop_End
						{
							OFFSET 0.000000 24.646606 12.978600
							CHANNELS 3 Xrotation Yrotation Zrotation
							End Site
							{
								OFFSET 0.000000 27.854965 0.000000
							}
						}
					}
				}
				JOINT LeftShoulder
				{
					OFFSET 16.952999 14.495407 -7.737500
					CHANNELS 3 Xrotation Yrotation Zrotation
					JOINT LeftArm
					{
						OFFSET 9.308998 -2.777710 0.208600
						CHANNELS 3 Xrotation Yrotation Zrotation
						JOINT LeftForeArm
						{
							OFFSET 29.972298 0.000000 0.000000
							CHANNELS 3 Xrotation Yrotation Zrotation
							JOINT LeftHand
							{
								OFFSET 26.026505 0.000000 0.000000
								CHANNELS 3 Xrotation Yrotation Zrotation
								JOINT LeftHandThumb1
								{
									OFFSET 12.240501 -7.147949 9.207150
									CHANNELS 3 Xrotation Yrotation Zrotation
									JOINT LeftHandThumb2
									{
										OFFSET 4.138618 -2.389435 2.389433
										CHANNELS 3 Xrotation Yrotation Zrotation
										JOINT LeftHandThumb3
										{
											OFFSET 2.726913 -1.574387 1.574386
											CHANNELS 3 Xrotation Yrotation Zrotation
											JOINT LeftHandThumb4
											{
												OFFSET 3.941010 -2.275345 2.275342
												CHANNELS 3 Xrotation Yrotation Zrotation
												End Site
												{
													OFFSET -0.005798 5.087799 0.009903
												}
											}
										}
									}
								}
								JOINT LeftHandIndex1
								{
									OFFSET 24.424698 -1.985611 5.953459
									CHANNELS 3 Xrotation Yrotation Zrotation
									JOINT LeftHandIndex2
									{
										OFFSET 6.426697 0.000000 0.000000
										CHANNELS 3 Xrotation Yrotation Zrotation
										JOINT LeftHandIndex3
										{
											OFFSET 5.337898 0.000000 0.000000
											CHANNELS 3 Xrotation Yrotation Zrotation
											JOINT LeftHandIndex4
											{
												OFFSET 4.409401 0.000000 0.000000
												CHANNELS 3 Xrotation Yrotation Zrotation
												End Site
												{
													OFFSET 0.000000 4.409363 0.014373
												}
											}
										}
									}
								}
								JOINT LeftHandMiddle1
								{
									OFFSET 23.810104 0.000000 0.000000
									CHANNELS 3 Xrotation Yrotation Zrotation
									JOINT LeftHandMiddle2
									{
										OFFSET 7.176498 0.000000 0.000000
										CHANNELS 3 Xrotation Yrotation Zrotation
										JOINT LeftHandMiddle3
										{
											OFFSET 6.774902 0.000000 0.000000
											CHANNELS 3 Xrotation Yrotation Zrotation
											JOINT LeftHandMiddle4
											{
												OFFSET 5.403328 0.000000 0.000000
												CHANNELS 3 Xrotation Yrotation Zrotation
												End Site
												{
													OFFSET -0.027702 5.403244 0.017414
												}
											}
										}
									}
								}
								JOINT LeftHandRing1
								{
									OFFSET 22.908401 -0.839279 -6.020567
									CHANNELS 3 Xrotation Yrotation Zrotation
									JOINT LeftHandRing2
									{
										OFFSET 6.337502 0.000000 0.000000
										CHANNELS 3 Xrotation Yrotation Zrotation
										JOINT LeftHandRing3
										{
											OFFSET 5.779297 0.000000 0.000000
											CHANNELS 3 Xrotation Yrotation Zrotation
											JOINT LeftHandRing4
											{
												OFFSET 4.965698 0.000000 0.000000
												CHANNELS 3 Xrotation Yrotation Zrotation
												End Site
												{
													OFFSET 0.000000 4.965668 0.016186
												}
											}
										}
									}
								}
								JOINT LeftHandPinky1
								{
									OFFSET 20.037003 -1.530319 -10.950146
									CHANNELS 3 Xrotation Yrotation Zrotation
									JOINT LeftHandPinky2
									{
										OFFSET 5.254700 0.000000 0.000000
										CHANNELS 3 Xrotation Yrotation Zrotation
										JOINT LeftHandPinky3
										{
											OFFSET 4.810204 0.000000 0.000000
											CHANNELS 3 Xrotation Yrotation Zrotation
											JOINT LeftHandPinky4
											{
												OFFSET 3.647202 0.000000 0.000000
												CHANNELS 3 Xrotation Yrotation Zrotation
												End Site
												{
													OFFSET 0.000000 3.647186 0.011889
												}
											}
										}
									}
								}
							}
						}
					}
				}
				JOINT RightShoulder
				{
					OFFSET -15.141001 14.495407 -7.737500
					CHANNELS 3 Xrotation Yrotation Zrotation
					JOINT RightArm
					{
						OFFSET -9.308998 -2.777710 0.208500
						CHANNELS 3 Xrotation Yrotation Zrotation
						JOINT RightForeArm
						{
							OFFSET -29.972300 0.000000 0.000000
							CHANNELS 3 Xrotation Yrotation Zrotation
							JOINT RightHand
							{
								OFFSET -26.026505 0.000000 0.000000
								CHANNELS 3 Xrotation Yrotation Zrotation
								JOINT RightHandThumb1
								{
									OFFSET -12.240601 -7.148026 9.207092
									CHANNELS 3 Xrotation Yrotation Zrotation
									JOINT RightHandThumb2
									{
										OFFSET -4.138618 -2.389435 2.389433
										CHANNELS 3 Xrotation Yrotation Zrotation
										JOINT RightHandThumb3
										{
											OFFSET -2.726974 -1.574417 1.574421
											CHANNELS 3 Xrotation Yrotation Zrotation
											JOINT RightHandThumb4
											{
												OFFSET -3.941010 -2.275345 2.275343
												CHANNELS 3 Xrotation Yrotation Zrotation
												End Site
												{
													OFFSET 0.005814 5.087799 0.009927
												}
											}
										}
									}
								}
								JOINT RightHandIndex1
								{
									OFFSET -24.424698 -1.985657 5.953444
									CHANNELS 3 Xrotation Yrotation Zrotation
									JOINT RightHandIndex2
									{
										OFFSET -6.426697 0.000000 0.000000
										CHANNELS 3 Xrotation Yrotation Zrotation
										JOINT RightHandIndex3
										{
											OFFSET -5.337898 0.000000 0.000000
											CHANNELS 3 Xrotation Yrotation Zrotation
											JOINT RightHandIndex4
											{
												OFFSET -4.409401 0.000000 0.000000
												CHANNELS 3 Xrotation Yrotation Zrotation
												End Site
												{
													OFFSET 0.000000 4.409363 0.014408
												}
											}
										}
									}
								}
								JOINT RightHandMiddle1
								{
									OFFSET -23.810097 0.000000 0.000000
									CHANNELS 3 Xrotation Yrotation Zrotation
									JOINT RightHandMiddle2
									{
										OFFSET -7.176498 0.000000 0.000000
										CHANNELS 3 Xrotation Yrotation Zrotation
										JOINT RightHandMiddle3
										{
											OFFSET -6.774902 0.000000 0.000000
											CHANNELS 3 Xrotation Yrotation Zrotation
											JOINT RightHandMiddle4
											{
												OFFSET -5.403328 0.000000 0.000000
												CHANNELS 3 Xrotation Yrotation Zrotation
												End Site
												{
													OFFSET 0.027702 5.403244 0.017457
												}
											}
										}
									}
								}
								JOINT RightHandRing1
								{
									OFFSET -22.908302 -0.839325 -6.020576
									CHANNELS 3 Xrotation Yrotation Zrotation
									JOINT RightHandRing2
									{
										OFFSET -6.337502 0.000000 0.000000
										CHANNELS 3 Xrotation Yrotation Zrotation
										JOINT RightHandRing3
										{
											OFFSET -5.779297 0.000000 0.000000
											CHANNELS 3 Xrotation Yrotation Zrotation
											JOINT RightHandRing4
											{
												OFFSET -4.965698 0.000000 0.000000
												CHANNELS 3 Xrotation Yrotation Zrotation
												End Site
												{
													OFFSET 0.000000 4.965668 0.016226
												}
											}
										}
									}
								}
								JOINT RightHandPinky1
								{
									OFFSET -20.037003 -1.530334 -10.950259
									CHANNELS 3 Xrotation Yrotation Zrotation
									JOINT RightHandPinky2
									{
										OFFSET -5.254700 0.000000 0.000000
										CHANNELS 3 Xrotation Yrotation Zrotation
										JOINT RightHandPinky3
										{
											OFFSET -4.810204 0.000000 0.000000
											CHANNELS 3 Xrotation Yrotation Zrotation
											JOINT RightHandPinky4
											{
												OFFSET -3.647202 0.000000 0.000000
												CHANNELS 3 Xrotation Yrotation Zrotation
												End Site
												{
													OFFSET 0.000000 3.647186 0.011917
												}
											}
										}
									}
								}
							}
						}
					}
				}
			}
		}
	}
	JOINT LeftUpLeg
	{
		OFFSET 15.427100 -6.655098 0.678600
		CHANNELS 3 Xrotation Yrotation Zrotation
		JOINT LeftLeg
		{
			OFFSET 4.081073 -39.591068 13.024000
			CHANNELS 3 Xrotation Yrotation Zrotation
			JOINT LeftFoot
			{
				OFFSET -4.081074 -37.707932 -15.979700
				CHANNELS 3 Xrotation Yrotation Zrotation
				JOINT LeftToeBase
				{
					OFFSET 5.346399 -15.068900 20.645000
					CHANNELS 3 Xrotation Yrotation Zrotation
					JOINT LeftToe_End
					{
						OFFSET 2.754700 0.931300 11.300900
						CHANNELS 3 Xrotation Yrotation Zrotation
						End Site
						{
							OFFSET 0.000000 11.669021 0.000000
						}
					}
				}
			}
		}
	}
	JOINT RightUpLeg
	{
		OFFSET -15.569500 -6.655098 0.678600
		CHANNELS 3 Xrotation Yrotation Zrotation
		JOINT RightLeg
		{
			OFFSET -4.081825 -39.591045 13.023800
			CHANNELS 3 Xrotation Yrotation Zrotation
			JOINT RightFoot
			{
				OFFSET 4.081824 -37.707954 -15.979600
				CHANNELS 3 Xrotation Yrotation Zrotation
				JOINT RightToeBase
				{
					OFFSET -5.346400 -15.068900 20.645000
					CHANNELS 3 Xrotation Yrotation Zrotation
					JOINT RightToe_End
					{
						OFFSET -2.754700 0.931300 11.300900
						CHANNELS 3 Xrotation Yrotation Zrotation
						End Site
						{
							OFFSET 0.000000 11.669021 0.000000
						}
					}
				}
			}
		}
	}
}
MOTION
Frames: 4
Frame Time: 0.033333
-4.743098 64.928673 2.992086 2.504720 -33.254825 3.312797 11.490903 1.727830 0.185318 22.778473 2.393883 0.533243 22.777231 2.404630 0.534678 -14.643506 2.007622 -1.488476 -3.071554 5.687965 5.550972 -0.000002 -0.000001 0.000001 -31.383503 -16.540691 -6.994642 -69.025769 -26.882440 -52.359387 0.000029 -59.278925 0.000021 -128.436762 -7.847187 19.500791 1.567996 0.456387 2.719341 19.473184 -1.474898 7.636915 -4.536180 -9.613116 1.492977 0.000001 0.000001 -0.000001 -1.882828 2.129414 -39.817011 2.947088 5.081735 -60.200502 0.514385 2.402389 -24.167410 0.000001 -0.000001 0.000002 0.405910 5.507050 -52.453155 3.387157 5.308631 -65.057443 0.282008 1.797448 -17.832388 -0.000001 -0.000003 0.000003 -0.074382 5.736776 -61.061427 4.422085 5.674478 -75.840399 0.582657 2.548968 -25.748001 -0.000001 0.000001 0.000001 2.216807 7.072468 -64.435431 4.422635 5.674619 -75.845774 1.294120 3.673923 -38.798456 0.000001 0.000001 0.000001 0.718171 17.862871 8.659776 -68.284645 37.933610 50.951791 0.000154 114.099744 -0.000165 -32.358325 -37.304321 -13.891786 8.377143 -4.904146 11.022002 21.620221 -18.183881 -18.379230 -0.702882 -49.821213 -32.535142 -0.000000 0.000001 -0.000001 -1.101393 1.407145 15.159502 1.422352 -3.352184 45.974082 0.615861 -2.316438 29.773112 0.000000 0.000000 -0.000000 3.413062 -7.186256 51.650242 6.296811 -4.359576 110.634660 0.248720 -1.503067 18.790277 -0.000000 0.000000 -0.000000 -3.349045 -2.600433 57.010558 5.440862 -4.590884 99.698154 1.689412 -3.590689 50.382235 0.000000 -0.000000 -0.000002 -3.996441 -3.303952 64.593837 4.058858 -4.618646 82.610537 2.315539 -4.026799 59.787207 0.000000 -0.000001 0.000002 -69.046772 14.638229 -5.649359 70.328279 -1.359440 -4.788791 -13.057963 -3.369290 -11.502889 -4.204683 -0.000021 0.000001 -0.000000 0.000004 0.000002 -41.004918 -2.108726 -2.387173 83.425843 -7.676034 -0.686579 -39.063464 -12.773135 -0.205679 -8.860185 -0.000018 -0.000004 -0.000000 0.000001 0.000000 
2.603281 63.688454 2.654442 -1.535448 -33.849987 -0.829974 12.348739 1.565645 0.426297 24.390047 2.810132 0.924915 24.390751 2.794779 0.941637 -14.090818 1.446124 0.232110 -4.386501 6.726820 4.632099 0.000002 -0.000001 -0.000002 -31.324053 -16.664545 -5.969455 -68.992198 -26.053407 -51.229188 -0.000029 -60.387827 -0.000037 -128.653348 -8.259378 19.995783 1.567996 0.456384 2.719341 19.473182 -1.474894 7.636914 -4.536179 -9.613114 1.492979 -0.000001 0.000001 -0.000000 -1.882829 2.129414 -39.817015 2.947093 5.081736 -60.200495 0.514382 2.402390 -24.167409 -0.000001 -0.000001 0.000001 0.405910 5.507049 -52.453155 3.387156 5.308633 -65.057443 0.282009 1.797448 -17.832381 0.000002 0.000002 0.000001 -0.074382 5.736777 -61.061427 4.422083 5.674480 -75.840399 0.582658 2.548967 -25.748001 -0.000000 0.000002 0.000002 2.216808 7.072469 -64.435431 4.422634 5.674620 -75.845774 1.294117 3.673924 -38.798449 -0.000001 -0.000002 0.000001 0.795638 18.379887 8.161220 -69.255379 38.034363 51.583504 0.000086 113.899955 -0.000090 -32.162316 -37.075049 -13.838871 8.377144 -4.904146 11.022001 21.620218 -18.183881 -18.379228 -0.702882 -49.821217 -32.535138 -0.000001 0.000001 0.000002 -1.101394 1.407146 15.159504 1.422352 -3.352184 45.974085 0.615860 -2.316438 29.773112 -0.000000 -0.000000 0.000000 3.413062 -7.186258 51.650239 6.296811 -4.359576 110.634660 0.248721 -1.503067 18.790277 -0.000001 -0.000000 -0.000000 -3.349046 -2.600433 57.010561 5.440863 -4.590884 99.698161 1.689412 -3.590689 50.382238 0.000000 -0.000001 0.000001 -3.996442 -3.303951 64.593837 4.058859 -4.618646 82.610537 2.315539 -4.026799 59.787207 -0.000000 -0.000000 -0.000003 -64.373522 8.174788 -0.147544 80.703569 -2.837435 -3.933189 -16.696114 0.279417 -9.876559 -4.104187 0.000017 0.000006 -0.000000 0.000002 0.000000 -44.294808 0.687259 -6.390528 84.072997 -5.750139 -1.246556 -32.912035 -13.364983 1.484931 -5.398053 0.000011 -0.000000 -0.000000 0.000003 0.000001 
10.204664 62.909882 2.929955 -3.724529 -34.179185 -4.316951 12.746075 1.595762 1.265194 25.181900 2.596708 1.162095 25.182791 2.576267 1.181054 -13.699289 1.540470 0.810337 -4.163231 8.338857 4.462932 -0.000000 0.000001 0.000001 -31.238751 -15.654594 -5.220278 -68.951552 -25.562096 -50.612316 -0.000067 -61.490690 -0.000054 -128.373925 -8.479129 20.990944 1.567996 0.456385 2.719341 19.473185 -1.474895 7.636914 -4.536183 -9.613117 1.492981 -0.000000 0.000001 -0.000001 -1.882828 2.129414 -39.817015 2.947091 5.081734 -60.200495 0.514387 2.402389 -24.167407 -0.000003 0.000001 0.000001 0.405910 5.507049 -52.453158 3.387160 5.308631 -65.057436 0.282012 1.797449 -17.832384 0.000001 -0.000004 0.000001 -0.074383 5.736773 -61.061427 4.422089 5.674479 -75.840399 0.582660 2.548967 -25.748001 -0.000001 0.000004 -0.000002 2.216808 7.072471 -64.435431 4.422635 5.674619 -75.845767 1.294122 3.673924 -38.798452 -0.000001 0.000002 0.000000 0.701052 19.845166 8.984812 -69.964107 38.780441 52.367989 0.000015 113.407662 -0.000026 -31.531339 -37.254198 -13.057560 8.377146 -4.904146 11.022000 21.620221 -18.183879 -18.379228 -0.702884 -49.821217 -32.535138 -0.000000 0.000000 0.000002 -1.101393 1.407146 15.159501 1.422351 -3.352183 45.974082 0.615861 -2.316439 29.773112 0.000000 -0.000000 -0.000001 3.413063 -7.186256 51.650239 6.296812 -4.359577 110.634653 0.248719 -1.503067 18.790282 -0.000000 0.000000 -0.000001 -3.349044 -2.600433 57.010561 5.440863 -4.590883 99.698161 1.689413 -3.590689 50.382235 0.000000 -0.000001 0.000002 -3.996440 -3.303951 64.593837 4.058859 -4.618648 82.610530 2.315539 -4.026798 59.787207 0.000000 -0.000001 -0.000001 -61.565570 0.266559 4.205029 90.266633 -2.874359 -1.988750 -16.921966 -0.893125 -4.187516 -0.960275 -0.000010 0.000006 0.000001 -0.000001 0.000001 -47.348719 4.110483 -10.308647 80.689130 -3.150090 -1.499177 -24.789285 -13.019990 6.835618 -2.178537 0.000021 -0.000002 0.000000 0.000001 -0.000000 
18.054688 62.665428 3.321174 -3.260756 -35.136361 -6.062059 12.615307 1.504177 1.272001 24.921487 2.721533 1.333360 24.925474 2.666320 1.367512 -13.493944 1.666381 0.944424 -3.973988 9.185184 4.400398 0.000001 0.000000 -0.000000 -31.242518 -15.491236 -5.414360 -68.842187 -24.480598 -49.331649 0.000037 -63.267667 0.000035 -126.914545 -8.336461 23.093052 1.567996 0.456382 2.719341 19.473182 -1.474897 7.636914 -4.536179 -9.613119 1.492980 -0.000001 -0.000002 -0.000001 -1.882828 2.129409 -39.817011 2.947091 5.081737 -60.200495 0.514388 2.402389 -24.167405 0.000003 -0.000002 0.000002 0.405910 5.507044 -52.453158 3.387154 5.308633 -65.057443 0.282011 1.797449 -17.832377 -0.000002 0.000000 0.000001 -0.074382 5.736769 -61.061427 4.422083 5.674481 -75.840399 0.582664 2.548963 -25.748001 -0.000002 -0.000002 -0.000001 2.216808 7.072464 -64.435431 4.422631 5.674621 -75.845781 1.294119 3.673922 -38.798456 0.000001 -0.000003 -0.000000 0.631197 20.198314 9.484361 -70.356399 40.137907 53.444314 0.000008 112.613161 -0.000026 -31.939812 -36.396063 -13.139899 8.377144 -4.904146 11.022001 21.620221 -18.183878 -18.379226 -0.702882 -49.821213 -32.535135 -0.000000 0.000002 -0.000000 -1.101393 1.407145 15.159501 1.422351 -3.352183 45.974085 0.615860 -2.316438 29.773112 -0.000000 0.000000 -0.000000 3.413062 -7.186257 51.650242 6.296812 -4.359576 110.634660 0.248720 -1.503067 18.790277 -0.000000 0.000000 -0.000000 -3.349045 -2.600433 57.010558 5.440863 -4.590883 99.698154 1.689412 -3.590690 50.382238 0.000001 0.000001 0.000001 -3.996441 -3.303951 64.593837 4.058858 -4.618648 82.610537 2.315539 -4.026800 59.787207 0.000000 -0.000000 -0.000002 -57.170169 -8.931298 10.472083 95.210043 -1.936169 -2.229588 -19.094525 -2.279101 2.474357 2.695284 0.070521 -3.034589 -0.000000 -0.000002 -0.000001 -50.963897 7.427947 -14.897058 74.878052 -0.459129 -0.737698 -14.646116 -10.853118 12.813111 -0.312278 -0.000002 0.000004 0.000000 0.000000 -0.000001 
